<svg width="220" height="65" viewBox="0 0 220 65" fill="none" xmlns="http://www.w3.org/2000/svg">
<g clip-path="url(#clip0_4_2)">
<path fill-rule="evenodd" clip-rule="evenodd" d="M56.3573 49.601C73.0193 48.3051 89.7079 47.7446 106.383 47.6394C123.063 47.6352 139.729 48.0774 156.356 49.0932C164.671 49.4784 172.96 50.3104 181.262 50.8971L206.098 53.406C207.232 53.5197 208.061 54.5224 207.942 55.6432C207.831 56.7466 206.842 57.5523 205.73 57.469L205.668 57.4647L180.899 55.547C172.627 55.1616 164.37 54.5224 156.098 54.3342C139.561 53.7168 123.01 53.6687 106.485 54.0583C89.9606 54.5531 73.4581 55.4945 57.0533 57.1582C40.7238 58.8701 8.29527 64.7329 8.29527 64.7329C5.91055 65.2846 3.52585 63.8179 2.97177 61.4622C2.41328 59.111 3.89818 56.7554 6.28288 56.2081C6.30949 56.1993 39.6467 50.9715 56.3573 49.601Z" fill="#E85579"/>
<path d="M7.5982 38.6432C7.59547 38.6311 7.58671 38.6204 7.57192 38.6111C7.56919 38.599 7.56646 38.587 7.56374 38.5749C7.51737 38.3698 7.60278 38.2427 7.81995 38.1936C7.92854 38.169 8.06147 38.1961 8.21873 38.2746C9.00936 38.7427 9.84374 39.0677 10.7219 39.2497C11.6 39.4316 12.5096 39.4162 13.4507 39.2035C13.7041 39.1462 13.9882 39.0566 14.3031 38.9347C14.6152 38.8007 14.9024 38.6407 15.1647 38.4546C15.4243 38.2564 15.6274 38.0329 15.7741 37.7842C15.9328 37.5327 15.9767 37.2501 15.9058 36.9364C15.8267 36.5865 15.6714 36.2919 15.4397 36.0526C15.2081 35.8133 14.9317 35.6285 14.6105 35.4982C14.4856 35.4503 14.2954 35.3665 14.0401 35.2467C13.7847 35.1268 13.4937 34.9897 13.1671 34.8353C12.8405 34.6808 12.4991 34.517 12.143 34.3439C11.784 34.1587 11.4413 33.9889 11.1147 33.8345C10.7974 33.6652 10.5098 33.5147 10.2517 33.3828C9.99359 33.2509 9.79934 33.1489 9.66893 33.077C8.83707 32.707 8.14863 32.2983 7.6036 31.8508C7.07065 31.4006 6.62876 30.9044 6.27794 30.3623C5.92712 29.8202 5.65063 29.2423 5.44848 28.6285C5.2436 28.0027 5.0607 27.3339 4.89978 26.622C4.65977 25.5603 4.6854 24.4955 4.97668 23.4278C5.26796 22.3601 5.79299 21.3727 6.55176 20.4656C7.31988 19.5438 8.30307 18.7318 9.50133 18.0297C10.6969 17.3156 12.0849 16.7799 13.6655 16.4226C13.8585 16.379 14.1535 16.3376 14.5505 16.2986C14.9448 16.2475 15.3821 16.2184 15.8624 16.2113C16.3548 16.2015 16.8614 16.2265 17.3822 16.2863C17.903 16.3461 18.3924 16.4637 18.8506 16.6392C19.0051 16.7057 19.1295 16.779 19.2237 16.8592C19.33 16.9366 19.4184 17.0752 19.4889 17.2748C19.7701 18.2385 20.0366 19.1928 20.2882 20.1378C20.5372 21.0707 20.8118 22.0612 21.1122 23.1093C21.1585 23.3144 21.1477 23.4627 21.0796 23.5542C21.0087 23.6336 20.907 23.6883 20.7743 23.7183C20.6415 23.7483 20.5308 23.7353 20.442 23.6793C20.0131 23.4085 19.5734 23.1465 19.123 22.8932C18.6726 22.6399 18.2136 22.4329 17.7461 22.2723C17.2759 22.0996 16.7878 21.988 16.2818 21.9375C15.7878 21.8843 15.2694 21.9191 14.7265 22.0418C14.4007 22.1155 14.0818 22.2193 13.7696 22.3532C13.4548 22.4751 13.181 22.6385 12.9483 22.8433C12.7156 23.048 12.5434 23.2962 12.4318 23.5878C12.3322 23.8766 12.326 24.2141 12.4133 24.6002C12.506 25.0104 12.6348 25.3554 12.7995 25.6352C12.9762 25.9123 13.2997 26.1372 13.77 26.3099L18.7804 28.278C19.7049 28.6651 20.4785 29.0862 21.1014 29.5415C21.7216 29.9847 22.2331 30.4524 22.6361 30.9447C23.039 31.4369 23.3501 31.9436 23.5694 32.4648C23.798 32.9711 23.9709 33.4837 24.0882 34.0025C24.2791 34.847 24.3204 35.6747 24.212 36.4855C24.1036 37.2963 23.8804 38.076 23.5423 38.8245C23.2015 39.561 22.7626 40.2563 22.2256 40.9103C21.698 41.5495 21.1071 42.1333 20.4529 42.6616C19.7961 43.1779 19.0899 43.6165 18.3345 43.9775C17.5939 44.3479 16.8435 44.6189 16.0834 44.7908C15.4922 44.9244 14.9043 45.0446 14.3197 45.1514C13.7499 45.2675 13.184 45.3447 12.622 45.383C12.0627 45.4334 11.5105 45.4313 10.9656 45.377C10.4234 45.3347 9.89034 45.2206 9.3664 45.0346L7.5982 38.6432Z" fill="#2E2E7D"/>
<path d="M23.8433 14.6741C23.8304 14.601 23.8125 14.5351 23.7896 14.4763C23.7789 14.4154 23.7681 14.3545 23.7574 14.2936C23.7381 14.184 23.7647 14.0851 23.8371 13.997C23.9074 13.8967 24.0994 13.7749 24.4134 13.6318L29.3327 11.5035C29.4625 11.4556 29.6295 11.3696 29.8337 11.2458C30.038 11.1219 30.2437 11.0417 30.4508 11.0053C30.8772 10.9302 31.1247 11.0876 31.1933 11.4774C31.1976 11.5018 31.2233 11.7547 31.2704 12.2363C31.3175 12.7178 31.3728 13.3173 31.4362 14.0346C31.4997 14.7519 31.5689 15.5373 31.6437 16.3907C31.7165 17.232 31.7828 18.0367 31.8426 18.8049C31.9025 19.5731 31.9524 20.2488 31.9923 20.8321C32.03 21.4033 32.0456 21.7773 32.0391 21.9543C32.5559 21.5368 33.1003 21.1332 33.6723 20.7436C34.2443 20.3541 34.8227 20.001 35.4075 19.6846C36.0046 19.366 36.6041 19.0971 37.2061 18.8781C37.8181 18.6448 38.4165 18.4766 39.0013 18.3737C39.7444 18.2429 40.4581 18.2303 41.1424 18.3359C41.8245 18.4294 42.4471 18.684 43.0102 19.0998C43.5832 19.5014 44.0745 20.0806 44.4841 20.8374C44.9037 21.58 45.2154 22.5299 45.4191 23.6872C45.4706 23.9796 45.5181 24.2852 45.5617 24.6041C45.6031 24.9108 45.6345 25.2319 45.6558 25.5672L46.1857 33.1795C46.2149 33.7019 46.2727 34.2444 46.3592 34.8069C46.4435 35.3572 46.5371 35.9248 46.6401 36.5096C46.6572 36.607 46.6722 36.6923 46.6851 36.7654C46.708 36.8242 46.7237 36.8779 46.7323 36.9266C46.7516 37.0363 46.7179 37.1301 46.6312 37.2082C46.5566 37.2841 46.3695 37.3987 46.0699 37.5519L41.8116 39.5826C41.6841 39.6428 41.5171 39.7287 41.3106 39.8404C41.1064 39.9643 40.9007 40.0444 40.6936 40.0809C40.4865 40.1174 40.3195 40.0965 40.1927 40.0184C40.0681 39.9524 39.9822 39.7854 39.935 39.5174C39.8594 38.5887 39.7967 37.8398 39.7468 37.2709C39.709 36.6997 39.6734 36.2476 39.6398 35.9144C39.6163 35.5668 39.6018 35.3056 39.5961 35.1308C39.5883 34.9438 39.5787 34.7822 39.5673 34.646C39.5537 34.4977 39.5441 34.3361 39.5385 34.1612C39.5307 33.9742 39.5089 33.708 39.4733 33.3626C39.4498 33.0151 39.413 32.5568 39.3631 31.9878C39.3254 31.4167 39.2687 30.6668 39.1932 29.7381C39.1561 29.2422 39.1201 28.7525 39.0852 28.2688C39.0604 27.7707 39.0126 27.3207 38.9418 26.9187C38.8517 26.407 38.7398 25.9495 38.6059 25.546C38.4821 25.1282 38.3214 24.7859 38.1238 24.5193C37.9361 24.2383 37.7055 24.034 37.4318 23.9063C37.1582 23.7787 36.8325 23.7481 36.4548 23.8146C36.1746 23.8639 35.8016 23.9924 35.3358 24.2C34.8821 24.4054 34.4363 24.6911 33.9983 25.0571C33.5725 25.421 33.2115 25.8676 32.9154 26.397C32.6292 26.9121 32.5208 27.5089 32.59 28.1875C32.6577 29.1428 32.7136 29.9242 32.7577 30.5319C32.8141 31.1374 32.8583 31.6383 32.8904 32.0345C32.9225 32.4308 32.9467 32.7468 32.9631 32.9826C32.9916 33.2162 33.017 33.4315 33.0391 33.6286C33.0377 33.6917 33.0462 33.8472 33.0647 34.0951C33.0811 34.3308 33.1 34.6164 33.1213 34.9518C33.1427 35.2871 33.1683 35.6469 33.1983 36.0309C33.226 36.4029 33.2506 36.7565 33.272 37.0918C33.3055 37.4251 33.3315 37.7156 33.3501 37.9636C33.3786 38.1972 33.3983 38.3445 33.409 38.4054C33.4262 38.5028 33.4412 38.5881 33.454 38.6612C33.4769 38.72 33.4937 38.7798 33.5045 38.8407C33.5216 38.9382 33.4879 39.032 33.4033 39.1223C33.3288 39.1982 33.1406 39.3067 32.8389 39.4477L28.3622 41.9502C28.2367 42.0225 28.0708 42.1145 27.8644 42.2262C27.658 42.3379 27.4512 42.412 27.2441 42.4485C27.0614 42.4806 26.8995 42.4526 26.7583 42.3644C26.6194 42.2884 26.5284 42.1286 26.4855 41.8849L23.8433 14.6741Z" fill="#2E2E7D"/>
<path d="M57.7017 37.8151C55.9707 38.0286 54.4135 37.9341 53.0303 37.5314C51.6593 37.1272 50.4742 36.5131 49.4752 35.6891C48.4747 34.8529 47.6784 33.8543 47.0865 32.6934C46.4931 31.5203 46.1154 30.2769 45.9533 28.9633C45.7913 27.6497 45.8524 26.3771 46.1367 25.1455C46.4195 23.9017 46.89 22.7655 47.5483 21.7371C48.2051 20.6964 49.0351 19.7963 50.0382 19.0369C51.0398 18.2652 52.1776 17.6886 53.4517 17.3071C53.6466 17.2706 53.7395 17.2155 53.7305 17.1419C53.7138 17.0068 53.6802 16.8863 53.6298 16.7804C53.5901 16.6606 53.5649 16.5578 53.5543 16.4719C53.5377 16.3368 53.5509 16.2417 53.5939 16.1866C53.637 16.1314 53.6892 16.1 53.7506 16.0924C56.0954 15.8032 58.1237 15.8271 59.8354 16.1644C61.5456 16.4893 62.9731 17.0486 64.118 17.8421C65.2628 18.6356 66.1457 19.6297 66.7667 20.8244C67.3877 22.0191 67.7868 23.3346 67.964 24.771C68.1897 26.6002 68.0842 28.2709 67.6476 29.783C67.2109 31.2951 66.5199 32.6142 65.5745 33.7404C64.6414 34.8651 63.4946 35.7731 62.1341 36.4644C60.7874 37.1664 59.3099 37.6167 57.7017 37.8151ZM53.0181 27.8861C53.0999 28.549 53.2485 29.1975 53.4638 29.8315C53.6914 30.464 53.9973 31.0245 54.3817 31.513C54.7783 32 55.261 32.3767 55.8297 32.6431C56.397 32.8971 57.0735 32.9757 57.8592 32.8788C58.4209 32.7845 58.8969 32.6012 59.287 32.3287C59.6879 32.0425 60.0199 31.7024 60.2829 31.3085C60.5443 30.9023 60.7453 30.46 60.8857 29.9815C61.0383 29.5015 61.1404 29.0153 61.1918 28.5229C61.254 28.0167 61.2809 27.5273 61.2724 27.0547C61.264 26.5822 61.2363 26.1556 61.1893 25.775C61.1106 25.1366 60.9351 24.5226 60.6629 23.933C60.4031 23.3419 60.0602 22.8358 59.6343 22.4147C59.2085 21.9936 58.7019 21.676 58.1146 21.4618C57.5381 21.2338 56.8938 21.1637 56.1818 21.2516C55.4452 21.3424 54.8525 21.6399 54.4036 22.144C53.9533 22.6357 53.614 23.2198 53.3859 23.896C53.17 24.5707 53.0385 25.2725 52.9913 26.0012C52.9425 26.7176 52.9515 27.3459 53.0181 27.8861Z" fill="#2E2E7D"/>
<path d="M78.1587 14.2377C79.3306 14.151 80.4079 14.2946 81.3907 14.6685C82.3848 15.0291 83.2471 15.5359 83.9776 16.1889C84.7195 16.8286 85.3075 17.5665 85.7414 18.4027C86.1753 19.2389 86.4242 20.0887 86.4881 20.9522C86.5447 21.7171 86.3673 22.5054 85.956 23.3172C85.5438 24.1168 84.9349 24.8564 84.1293 25.5361C83.3361 26.215 82.3615 26.7894 81.2055 27.2594C80.0495 27.7294 78.7622 28.0169 77.3435 28.1218C76.6034 28.1765 75.8207 28.16 74.9956 28.0721C75.0842 28.599 75.2721 29.044 75.5595 29.4072C75.8468 29.7705 76.197 30.0609 76.61 30.2784C77.023 30.496 77.4808 30.6482 77.9833 30.735C78.4973 30.8086 79.0195 30.8258 79.55 30.7866C80.1421 30.7428 80.7059 30.6515 81.2414 30.5127C81.7883 30.3606 82.3083 30.1795 82.8013 29.9694C83.2943 29.7593 83.7675 29.532 84.2207 29.2877C84.674 29.0433 85.1026 28.8007 85.5065 28.56C85.6157 28.5271 85.7068 28.5018 85.7799 28.4839C85.8645 28.4529 85.9437 28.4346 86.0178 28.4292C86.0178 28.4292 86.0189 28.5283 86.0212 28.7266C86.0357 28.924 86.0563 29.2015 86.0827 29.5593C86.1092 29.917 86.135 30.3492 86.16 30.8559C86.1974 31.3617 86.2328 31.9235 86.266 32.5412C86.3076 32.6001 86.3369 32.66 86.3537 32.7207C86.3706 32.7815 86.3805 32.8304 86.3832 32.8674C86.3941 33.0154 86.2703 33.1858 86.0117 33.3786C85.7531 33.5714 85.4085 33.7767 84.9781 33.9946C84.5601 34.2116 84.0737 34.4274 83.519 34.6421C82.9766 34.8558 82.4206 35.052 81.8508 35.2306C81.282 35.4215 80.7289 35.574 80.1916 35.6882C79.6552 35.8147 79.1834 35.893 78.7763 35.9231C77.444 36.0216 76.1314 35.883 74.8384 35.5073C73.5587 35.143 72.3997 34.5651 71.3613 33.7737C70.3352 32.9813 69.4866 31.9898 68.8156 30.799C68.1446 29.6083 67.7521 28.2419 67.638 26.6999C67.5185 25.0839 67.6843 23.5522 68.1354 22.1048C68.5856 20.6451 69.2716 19.354 70.1933 18.2316C71.1273 17.1082 72.2689 16.1927 73.6182 15.4852C74.9675 14.7776 76.481 14.3618 78.1587 14.2377ZM78.3006 19.1762C77.7949 19.2136 77.3343 19.3593 76.919 19.6133C76.515 19.854 76.1493 20.1912 75.8216 20.6247C75.5054 21.045 75.2388 21.5485 75.0217 22.1351C74.8037 22.7094 74.6396 23.3417 74.5294 24.0321C75.7836 23.716 76.821 23.4036 77.6416 23.0949C78.4622 22.7861 79.1163 22.4897 79.6038 22.2056C80.0904 21.9091 80.4295 21.6298 80.6209 21.3675C80.8115 21.093 80.8981 20.8385 80.8808 20.6041C80.8643 20.382 80.7625 20.1787 80.5752 19.9941C80.4002 19.8086 80.1839 19.6509 79.9262 19.5212C79.6685 19.3914 79.3889 19.3004 79.0874 19.2483C78.7973 19.1829 78.535 19.1589 78.3006 19.1762Z" fill="#2E2E7D"/>
<path d="M114.644 34.6314C114.508 34.6705 114.33 34.7288 114.108 34.8063C113.887 34.8961 113.671 34.9425 113.461 34.9456C113.287 34.9481 113.132 34.9071 112.995 34.8225C112.87 34.7377 112.806 34.5902 112.803 34.38L112.801 34.2686C112.875 33.3645 112.938 32.6337 112.992 32.0762C113.046 31.5063 113.088 31.048 113.12 30.7011C113.152 30.3542 113.18 30.0941 113.202 29.9205C113.224 29.7346 113.246 29.5673 113.269 29.4185C113.291 29.2574 113.307 29.0839 113.317 28.8982C113.339 28.7124 113.366 28.4522 113.398 28.1177C113.43 27.7708 113.467 27.3187 113.508 26.7614C113.562 26.1916 113.625 25.4484 113.698 24.5319C113.741 24.0364 113.783 23.5471 113.825 23.064C113.88 22.5684 113.904 22.1165 113.898 21.7083C113.891 21.1888 113.853 20.7193 113.785 20.2997C113.729 19.8675 113.625 19.5041 113.472 19.2094C113.332 18.9022 113.136 18.6638 112.887 18.4942C112.637 18.3247 112.32 18.2427 111.937 18.2483C111.702 18.2517 111.393 18.3057 111.011 18.4103C110.641 18.5146 110.267 18.6995 109.887 18.9648C109.507 19.2178 109.166 19.5568 108.863 19.9818C108.56 20.3945 108.369 20.9168 108.292 21.5489L108.293 21.6231C108.165 23.0353 108.047 24.2618 107.938 25.3025C107.842 26.3307 107.756 27.2165 107.68 27.9599C107.605 28.7032 107.539 29.3228 107.485 29.8184C107.443 30.3139 107.405 30.735 107.373 31.0819C107.341 31.4164 107.314 31.6951 107.293 31.9181C107.284 32.1409 107.281 32.3513 107.283 32.5492C107.285 32.6481 107.286 32.7347 107.287 32.8089C107.3 32.8706 107.307 32.9261 107.308 32.9756C107.31 33.0746 107.261 33.1619 107.164 33.2375C107.078 33.3006 106.875 33.384 106.555 33.4876L102.213 34.8128C102.078 34.8519 101.899 34.9102 101.678 34.9877C101.456 35.0775 101.241 35.1239 101.03 35.127C100.857 35.1295 100.702 35.0885 100.565 35.0039C100.44 34.9191 100.376 34.7716 100.373 34.5614L100.371 34.45C100.444 33.5459 100.502 32.8151 100.543 32.2578C100.597 31.688 100.639 31.2296 100.671 30.8828C100.716 30.5357 100.749 30.2755 100.771 30.1019C100.793 29.916 100.81 29.7488 100.82 29.6002C100.842 29.439 100.864 29.2655 100.886 29.0796C100.908 28.8938 100.929 28.6337 100.949 28.2993C100.981 27.9525 101.018 27.5004 101.059 26.9431C101.113 26.3732 101.176 25.6301 101.249 24.7135C101.292 24.2181 101.334 23.7288 101.377 23.2457C101.431 22.7501 101.455 22.2982 101.45 21.89C101.442 21.3705 101.41 20.9009 101.355 20.4811C101.299 20.0489 101.201 19.6854 101.06 19.3905C100.932 19.0831 100.756 18.8445 100.53 18.6745C100.305 18.5046 100.02 18.4222 99.6732 18.4273C99.4259 18.4309 99.0866 18.4977 98.6555 18.6277C98.2368 18.7575 97.8131 18.9678 97.3843 19.2586C96.968 19.5492 96.5962 19.932 96.2691 20.4068C95.9542 20.8692 95.777 21.4408 95.7375 22.1218C95.6519 23.0385 95.5825 23.7942 95.5293 24.3888C95.4759 24.971 95.4335 25.4541 95.402 25.838C95.3703 26.2096 95.3438 26.5131 95.3225 26.7485C95.3134 26.9713 95.3041 27.1817 95.2946 27.3798C95.283 27.4295 95.2665 27.572 95.2452 27.8073C95.2237 28.0303 95.1967 28.3029 95.1643 28.625C95.1441 28.9346 95.1181 29.2752 95.0865 29.6468C95.0669 30.0058 95.0472 30.3463 95.0271 30.6682C95.0069 30.9778 94.9861 31.2503 94.9648 31.4856C94.9557 31.7085 94.9515 31.8446 94.9522 31.8941L94.9571 32.228C94.9589 32.3517 94.9543 32.4569 94.9432 32.5437C94.9321 32.6304 94.8961 32.7114 94.8354 32.7865C94.7746 32.8616 94.6828 32.931 94.5601 32.9946C94.4496 33.0581 94.2898 33.1285 94.0807 33.2058L89.245 35.0021C89.1097 35.0536 88.9313 35.118 88.7097 35.1955C88.4882 35.2729 88.2722 35.3132 88.062 35.3163C87.8888 35.3188 87.7336 35.2778 87.5963 35.1932C87.4713 35.1084 87.4073 34.9609 87.4042 34.7506L88.7978 15.8025C88.829 15.3938 88.8682 15.1148 88.9155 14.9657C88.975 14.804 89.1157 14.6968 89.3376 14.6441C90.4599 14.405 91.6069 14.1656 92.7787 13.9258C93.9503 13.6737 95.0962 13.36 96.2165 12.9849C96.3154 12.9835 96.3714 13.0012 96.3843 13.0382C96.4094 13.0625 96.4224 13.1056 96.4233 13.1675L96.2216 15.8797C96.6758 15.638 97.1854 15.377 97.7504 15.0966C98.3152 14.8038 98.9051 14.5354 99.5201 14.2914C100.147 14.0472 100.782 13.8461 101.423 13.6883C102.076 13.518 102.712 13.4283 103.33 13.4193C104.183 13.4068 104.972 13.5932 105.695 13.9786C106.43 14.3513 107.039 14.9858 107.523 15.8818C108.074 15.515 108.657 15.1725 109.271 14.8542C109.897 14.5358 110.53 14.2606 111.17 14.0286C111.822 13.7964 112.475 13.6136 113.129 13.4804C113.783 13.3471 114.419 13.276 115.037 13.267C115.816 13.2556 116.554 13.3562 117.25 13.5687C117.946 13.7812 118.551 14.1374 119.065 14.6371C119.592 15.1366 120.01 15.7923 120.319 16.6043C120.627 17.4039 120.79 18.3851 120.807 19.5477C120.811 19.8446 120.81 20.1539 120.802 20.4756C120.794 20.785 120.774 21.107 120.742 21.4414L120.004 29.3945C119.95 29.9148 119.92 30.3978 119.914 30.8432C119.908 31.2763 119.909 31.7835 119.918 32.3648C119.919 32.4637 119.921 32.5503 119.922 32.6245C119.935 32.6862 119.942 32.7418 119.943 32.7912C119.944 32.9025 119.896 32.9898 119.798 33.0531C119.712 33.1162 119.509 33.1996 119.189 33.3033L114.644 34.6314Z" fill="#2E2E7D"/>
<path d="M136.698 31.4423C136.683 31.4912 136.675 31.5403 136.672 31.5897C136.671 31.6268 136.669 31.6639 136.667 31.7009C136.653 32.0098 136.69 32.2716 136.779 32.4863C136.869 32.6886 136.966 32.8602 137.071 33.0013C137.189 33.1306 137.295 33.2408 137.39 33.3319C137.486 33.4106 137.532 33.4809 137.529 33.5426C137.521 33.7156 137.328 33.8677 136.951 33.9988L131.866 35.899C131.853 35.9108 131.809 35.9149 131.735 35.9115C131.636 35.9069 131.542 35.8158 131.451 35.6383C131.36 35.4607 131.271 35.2337 131.185 34.9573C131.111 34.6938 131.037 34.4117 130.964 34.1112C130.905 33.7988 130.85 33.5114 130.8 33.2491C129.98 34.115 129.109 34.7371 128.187 35.1154C127.266 35.4937 126.36 35.6622 125.471 35.6209C124.433 35.5728 123.43 35.2972 122.463 34.7941C121.495 34.2911 120.648 33.6017 119.921 32.7259C119.194 31.8378 118.624 30.7835 118.21 29.5631C117.809 28.3434 117.643 26.9859 117.712 25.4908C117.794 23.7238 118.122 22.123 118.696 20.6884C119.283 19.2544 120.039 18.0326 120.965 17.023C121.891 16.0134 122.948 15.2514 124.136 14.7368C125.337 14.2105 126.592 13.9778 127.902 14.0385C128.829 14.0815 129.697 14.3137 130.507 14.7352C131.318 15.1443 132.08 15.6626 132.794 16.2901C132.885 15.9228 132.942 15.6283 132.965 15.4064C132.988 15.1846 133.021 15.0127 133.063 14.8909C133.118 14.7696 133.209 14.6933 133.334 14.662C133.46 14.6183 133.665 14.5907 133.951 14.5791C134.846 14.4968 135.735 14.4266 136.617 14.3684C137.512 14.2985 138.442 14.2612 139.408 14.2565L136.698 31.4423ZM131.48 24.1976C131.636 23.499 131.747 22.8417 131.813 22.2256C131.892 21.5977 131.955 21.0248 132.004 20.507C131.813 20.3496 131.604 20.1851 131.377 20.0136C131.162 19.8426 130.922 19.6829 130.656 19.5343C130.404 19.374 130.131 19.2437 129.838 19.1435C129.558 19.0438 129.257 18.9865 128.936 18.9716C128.269 18.9407 127.697 19.1308 127.219 19.5421C126.755 19.9539 126.365 20.4684 126.052 21.0854C125.751 21.7029 125.522 22.361 125.366 23.0596C125.222 23.7588 125.138 24.3802 125.112 24.9239C125.022 26.8762 125.209 28.3213 125.673 29.2592C126.15 30.1853 126.846 30.6695 127.76 30.712C128.131 30.7291 128.55 30.6433 129.017 30.4545C129.483 30.2656 129.96 29.9967 130.447 29.6478L131.48 24.1976Z" fill="#2E2E7D"/>
<path d="M154.71 21.7933C154.454 21.7453 154.167 21.6945 153.848 21.6409C153.532 21.575 153.194 21.5259 152.837 21.4936C152.295 21.4446 151.736 21.4438 151.161 21.4911C150.598 21.5272 150.065 21.6591 149.56 21.8867C149.055 22.1143 148.608 22.4528 148.22 22.9021C147.833 23.339 147.556 23.9288 147.389 24.6714C147.221 25.5753 147.079 26.3201 146.964 26.9059C146.862 27.4804 146.782 27.9575 146.723 28.3372C146.665 28.7046 146.613 29.0042 146.567 29.236C146.535 29.4567 146.503 29.665 146.473 29.861C146.469 29.9103 146.444 30.0447 146.4 30.2642C146.367 30.4848 146.319 30.7413 146.255 31.0336C146.192 31.326 146.126 31.6429 146.058 31.9846C146.002 32.3273 145.942 32.6448 145.878 32.9371C145.815 33.2295 145.761 33.4854 145.716 33.7049C145.684 33.9256 145.665 34.0605 145.661 34.1098C145.652 34.2084 145.644 34.2946 145.637 34.3685C145.644 34.4312 145.645 34.4934 145.639 34.555C145.63 34.6535 145.573 34.7353 145.468 34.8003C145.376 34.8541 145.166 34.9097 144.838 34.967L139.782 36.2799C139.642 36.317 139.458 36.3624 139.23 36.4163C139.001 36.4702 138.782 36.4877 138.573 36.4687C138.4 36.4531 138.25 36.3961 138.123 36.2976C138.007 36.2002 137.959 36.0468 137.978 35.8374L141.222 17.668C141.296 17.2648 141.364 16.9915 141.427 16.8481C141.503 16.6935 141.654 16.6016 141.88 16.5724C143.021 16.4519 144.199 16.3348 145.414 16.2211C146.631 16.095 147.815 15.904 148.969 15.648C149.067 15.6569 149.121 15.6804 149.13 15.7185C149.152 15.7454 149.161 15.7896 149.155 15.8512C149.153 15.8758 149.144 15.9122 149.127 15.9604C149.122 16.0097 149.094 16.1189 149.041 16.288C149.001 16.4583 148.934 16.7192 148.84 17.0709C148.76 17.4114 148.642 17.8914 148.486 18.5108C149.093 18.1185 149.752 17.7682 150.463 17.4598C151.186 17.1526 151.905 16.9008 152.618 16.7044C153.332 16.4957 154.016 16.3464 154.67 16.2565C155.326 16.1542 155.893 16.1248 156.374 16.1682L154.71 21.7933Z" fill="#2E2E7D"/>
<path d="M167.388 10.4005L165.867 16.6921C165.665 17.5387 165.456 18.3967 165.239 19.2661C165.035 20.1372 164.835 20.9715 164.64 21.7691C164.445 22.5666 164.265 23.3037 164.099 23.9803C163.933 24.6569 163.795 25.2125 163.687 25.6473L165.144 24.4207L167.528 22.2892C167.825 22.0297 168.116 21.7693 168.401 21.5081C168.686 21.2469 168.941 21.0192 169.167 20.825C169.394 20.6185 169.579 20.4499 169.722 20.3193C169.866 20.1765 169.952 20.0944 169.98 20.0732L177.441 20.5542C177.48 20.5468 177.517 20.5457 177.554 20.5506C177.603 20.5572 177.646 20.563 177.683 20.568C177.891 20.596 177.988 20.6652 177.973 20.7756C177.961 20.8614 177.807 21.0341 177.51 21.2936L170.887 26.9543C170.592 27.2015 170.241 27.4912 169.834 27.8234C169.441 28.1449 169 28.5036 168.51 28.8994L170.764 32.4606L174.726 38.0682C174.755 38.1344 174.803 38.1909 174.872 38.2376C174.942 38.272 175.006 38.3056 175.064 38.3384C175.134 38.3728 175.192 38.4117 175.236 38.4551C175.294 38.4879 175.319 38.5349 175.31 38.5962C175.304 38.6453 175.286 38.6804 175.259 38.7016C175.243 38.7245 175.181 38.7661 175.073 38.8264C174.951 38.8974 174.739 38.9935 174.435 39.1149C174.144 39.2379 173.802 39.3728 173.407 39.5194C173.013 39.666 172.594 39.8093 172.151 39.9493C171.706 40.1015 171.277 40.2309 170.863 40.3374C170.448 40.4562 170.068 40.5423 169.724 40.5958C169.378 40.6616 169.113 40.6821 168.929 40.6573C168.782 40.6375 168.64 40.5809 168.503 40.4875C168.378 40.3958 168.243 40.2403 168.097 40.021C167.901 39.7199 167.655 39.3248 167.359 38.8356C167.073 38.3603 166.763 37.8379 166.428 37.2685C166.094 36.6869 165.75 36.0914 165.395 35.4819C165.054 34.8618 164.722 34.2741 164.397 33.7186C164.086 33.1525 163.799 32.6458 163.535 32.1983C163.284 31.7402 163.09 31.377 162.951 31.1087C162.882 31.1617 162.814 31.2025 162.748 31.231C162.683 31.2473 162.617 31.2758 162.549 31.3166C162.493 31.359 162.442 31.4145 162.395 31.4831C162.35 31.5395 162.319 31.6289 162.303 31.7515C162.296 31.8005 162.265 31.9399 162.209 32.1695C162.155 32.3869 162.088 32.6524 162.008 32.9662C161.942 33.2694 161.867 33.5962 161.783 33.9468C161.698 34.2974 161.616 34.6295 161.536 34.9433C161.47 35.2465 161.409 35.5129 161.353 35.7425C161.299 35.9599 161.269 36.0931 161.262 36.1421C161.251 36.2279 161.241 36.3015 161.232 36.3628C161.238 36.4135 161.238 36.4633 161.231 36.5123C161.213 36.6472 161.15 36.7448 161.042 36.8051C160.948 36.8549 160.716 36.9048 160.348 36.955L155.319 37.869C155.178 37.8999 154.992 37.9372 154.761 37.9811C154.531 38.0249 154.311 38.0328 154.103 38.0047C153.931 37.9816 153.784 37.918 153.66 37.8141C153.549 37.7117 153.51 37.5441 153.541 37.3112L159.427 11.1253C159.436 11.0641 159.437 11.0081 159.431 10.9574C159.427 10.8944 159.429 10.8323 159.438 10.771C159.453 10.6607 159.509 10.5684 159.606 10.4941C159.717 10.4093 159.944 10.3462 160.287 10.305L165.62 9.76905C165.758 9.7627 165.943 9.73148 166.176 9.67539C166.408 9.61931 166.628 9.6053 166.836 9.63337C166.996 9.65484 167.138 9.71144 167.263 9.80316C167.4 9.89653 167.455 10.0474 167.427 10.2558C167.423 10.2803 167.414 10.304 167.398 10.3269C167.395 10.3514 167.392 10.3759 167.388 10.4005Z" fill="#2E2E7D"/>
<path d="M188.746 21.5647C189.901 21.7773 190.907 22.1888 191.763 22.7992C192.634 23.3996 193.34 24.1081 193.881 24.9246C194.437 25.7312 194.819 26.5939 195.028 27.5127C195.236 28.4314 195.262 29.3166 195.105 30.1682C194.966 30.9224 194.595 31.6403 193.992 32.3216C193.391 32.9908 192.615 33.5523 191.663 34.0061C190.724 34.4622 189.636 34.7713 188.399 34.9336C187.161 35.0958 185.843 35.0482 184.444 34.7907C183.714 34.6564 182.961 34.4424 182.185 34.1487C182.137 34.6807 182.207 35.1589 182.393 35.583C182.579 36.0071 182.844 36.3767 183.189 36.6916C183.533 37.0066 183.938 37.2696 184.402 37.4808C184.88 37.6821 185.381 37.8309 185.904 37.9271C186.488 38.0346 187.057 38.0889 187.61 38.0901C188.178 38.0813 188.727 38.0377 189.257 37.9591C189.787 37.8806 190.302 37.7805 190.802 37.6587C191.303 37.537 191.779 37.4107 192.231 37.28C192.344 37.2759 192.439 37.2744 192.514 37.2757C192.604 37.267 192.685 37.2694 192.758 37.2828C192.758 37.2828 192.734 37.379 192.686 37.5714C192.65 37.7661 192.6 38.0398 192.535 38.3926C192.47 38.7454 192.386 39.1701 192.282 39.6666C192.19 40.1654 192.082 40.7178 191.958 41.3239C191.983 41.3914 191.997 41.4567 191.997 41.5198C191.998 41.5829 191.996 41.6326 191.989 41.6691C191.962 41.8151 191.799 41.9486 191.5 42.0697C191.201 42.1908 190.816 42.3023 190.344 42.4042C189.885 42.5083 189.36 42.594 188.769 42.6614C188.19 42.731 187.602 42.7801 187.006 42.8087C186.407 42.8494 185.834 42.8571 185.285 42.8316C184.734 42.8182 184.258 42.7746 183.856 42.7007C182.542 42.459 181.308 41.9928 180.152 41.3022C179.006 40.6259 178.031 39.7736 177.226 38.7452C176.434 37.719 175.864 36.545 175.516 35.2232C175.168 33.9015 175.134 32.4802 175.414 30.9595C175.707 29.3658 176.255 27.9259 177.058 26.6398C177.863 25.3415 178.853 24.266 180.029 23.4132C181.217 22.5627 182.553 21.9659 184.037 21.6227C185.522 21.2796 187.091 21.2602 188.746 21.5647ZM187.633 26.3784C187.135 26.2867 186.652 26.3111 186.186 26.4517C185.734 26.5824 185.295 26.816 184.868 27.1526C184.456 27.4792 184.071 27.8988 183.712 28.4114C183.356 28.9118 183.037 29.4821 182.756 30.1221C184.05 30.1337 185.132 30.0939 186.004 30.0028C186.876 29.9117 187.584 29.7904 188.128 29.6389C188.673 29.4752 189.072 29.2907 189.324 29.0855C189.578 28.8681 189.726 28.6438 189.768 28.4126C189.809 28.1937 189.761 27.9712 189.627 27.7452C189.505 27.5214 189.335 27.3142 189.119 27.1234C188.902 26.9327 188.655 26.7739 188.376 26.6472C188.112 26.5106 187.864 26.421 187.633 26.3784Z" fill="#2E2E7D"/>
<path d="M205.925 31.8821C205.466 33.1096 205.014 34.3385 204.568 35.5687C204.136 36.7897 203.777 37.9447 203.489 39.0337C203.382 39.504 203.328 39.9042 203.329 40.2342C203.33 40.5643 203.376 40.8349 203.467 41.0462C203.57 41.2601 203.709 41.4314 203.882 41.5599C204.059 41.6764 204.267 41.7622 204.509 41.8174C204.894 41.9057 205.329 41.948 205.812 41.9443C206.298 41.9285 206.79 41.8826 207.29 41.8066C207.449 41.7794 207.579 41.7647 207.681 41.7627C207.798 41.7513 207.892 41.7539 207.964 41.7705C208.085 41.7981 208.151 41.8703 208.162 41.9871C208.186 42.1066 208.184 42.3092 208.157 42.5948C208.144 42.8712 208.128 43.2481 208.107 43.7256C208.087 44.2031 208.093 44.8136 208.126 45.5572C208.124 45.6202 208.118 45.6759 208.107 45.7241C208.111 45.763 208.108 45.8006 208.1 45.8368C208.062 46.0056 207.968 46.111 207.818 46.153C207.681 46.1977 207.457 46.2353 207.146 46.2655C206.613 46.3212 206.048 46.3761 205.452 46.4301C204.871 46.4748 204.292 46.5074 203.717 46.528C203.153 46.5513 202.614 46.5486 202.1 46.5199C201.584 46.5033 201.139 46.4522 200.765 46.3667C198.751 45.906 197.395 45.0691 196.695 43.8558C196.008 42.6453 195.898 41.0152 196.367 38.9652C196.447 38.6155 196.541 38.2626 196.648 37.9064C196.757 37.5381 196.876 37.1591 197.003 36.7694C197.399 35.5912 197.763 34.4751 198.092 33.4213C198.437 32.3581 198.771 31.3431 199.094 30.3764L197.194 29.942C196.543 29.793 196.078 29.6613 195.8 29.5469C195.524 29.4204 195.406 29.2727 195.445 29.1039C195.456 29.0557 195.545 28.9429 195.712 28.7654C195.883 28.576 196.091 28.3572 196.338 28.1092C196.6 27.8519 196.878 27.5792 197.173 27.2913C197.467 27.0033 197.744 26.7367 198.003 26.4914C198.277 26.2368 198.511 26.0176 198.705 25.8336C198.9 25.6497 199.02 25.5377 199.068 25.4978L200.352 25.7916C200.67 24.9 200.929 24.1536 201.13 23.5524C201.346 22.9419 201.519 22.4358 201.649 22.0341C201.791 21.6351 201.905 21.3313 201.991 21.1225C202.079 20.9017 202.154 20.7411 202.215 20.6409C202.288 20.5434 202.358 20.4895 202.424 20.4792C202.504 20.4595 202.601 20.4501 202.716 20.4508C203.283 20.4664 203.83 20.4899 204.355 20.5214C204.884 20.5408 205.412 20.5602 205.941 20.5796C206.469 20.5989 207.007 20.6077 207.553 20.6057C208.114 20.5944 208.697 20.5692 209.302 20.53C209.338 20.5383 209.363 20.5438 209.375 20.5466C209.389 20.5373 209.415 20.5368 209.451 20.545C209.596 20.5781 209.657 20.6429 209.635 20.7394L209.627 20.7756C209.415 21.425 209.107 22.3254 208.704 23.4767C208.313 24.6309 207.868 25.9376 207.37 27.397L212.217 28.5059C212.314 28.528 212.396 28.5848 212.464 28.6765C212.546 28.7589 212.57 28.8784 212.534 29.0352C212.52 29.0955 212.398 29.296 212.168 29.6367C211.938 29.9774 211.621 30.4188 211.218 30.9611L210.231 32.2772C210.106 32.4388 209.985 32.5507 209.869 32.613C209.765 32.6781 209.572 32.691 209.289 32.6517L205.925 31.8821Z" fill="#2E2E7D"/>
</g>
<defs>
<clipPath id="clip0_4_2">
<rect width="220" height="65" fill="white"/>
</clipPath>
</defs>
</svg>
